<?xml version="1.0" encoding="UTF-8"?>
<svg width="349px" height="72px" viewBox="0 0 349 72" version="1.1" xmlns="http://www.w3.org/2000/svg" xmlns:xlink="http://www.w3.org/1999/xlink">
    <title>Open API Button</title>
    <g id="Page-1" stroke="none" stroke-width="1" fill="none" fill-rule="evenodd">
        <g id="Open-API-Button">
            <rect id="Rectangle" fill="#6BA437" x="0" y="0" width="348.988235" height="72" rx="8"></rect>
            <text id="DOWNLOAD-OPENAPI-FIL" font-family="Arial-BoldMT, Arial" font-size="18" font-weight="bold" fill="#FFFFFF">
                <tspan x="77" y="42">DOWNLOAD OPENAPI FILE</tspan>
            </text>
        </g>
        <g id="image2vector(2)" transform="translate(17.000000, 9.000000)" fill-rule="nonzero">
            <path d="M43.5907356,0.0468507217 C42.9331948,0.170756884 42.4184096,0.294663047 42.2554664,0.368142283 C42.1545281,0.412806132 42.0406121,0.450266135 42.0016787,0.450266135 C41.9223701,0.450266135 41.3700935,0.689433845 41.1393775,0.824866162 C41.0600688,0.870970781 40.9230812,0.93724617 40.8365627,0.973265403 C40.7500441,1.00928464 40.6779454,1.05683002 40.6779454,1.0813231 C40.6779454,1.10437541 40.5741232,1.1706508 40.4472293,1.22828158 C40.3203355,1.28591235 40.2165133,1.35362851 40.2165133,1.38100312 C40.2165133,1.40837774 40.1775799,1.42998928 40.1299947,1.42998928 C40.0824096,1.42998928 40.0117528,1.48185698 39.9713775,1.54525083 C39.9324441,1.60864468 39.8733231,1.66051238 39.8415997,1.66051238 C39.8069923,1.66051238 39.6901923,1.74119546 39.5806021,1.83916777 C38.9389231,2.41259397 38.7918416,2.55955244 38.5092145,2.9139817 C38.380275,3.07695348 38.2475777,3.23692171 38.1112293,3.39375788 C38.0636441,3.44418481 38.0247108,3.50325635 38.0247108,3.52630866 C38.0247108,3.56520944 37.9843354,3.63004406 37.6988243,4.05218947 C37.6339354,4.14728025 37.5459749,4.3230541 37.5027157,4.44119719 C37.4594564,4.56078105 37.4032194,4.65731259 37.3787058,4.65731259 C37.3527502,4.65731259 37.3325626,4.68324644 37.3325626,4.71350259 C37.3325626,4.74375875 37.2719996,4.90656569 37.1970169,5.07369493 C36.9172737,5.7047519 36.6980934,6.54904273 36.6980934,7.0014443 C36.6980934,7.10662046 36.6721379,7.19306662 36.6404144,7.19306662 C36.5683157,7.19306662 36.5611058,9.10640829 36.6332045,9.18420984 C36.6865576,9.24184061 36.7759601,9.90171297 36.7298169,9.90171297 C36.7153971,9.90171297 36.607249,9.83687835 36.490449,9.75763603 C36.375091,9.67839372 36.2424292,9.6135591 36.19917,9.6135591 C36.1559107,9.6135591 36.1213033,9.59194756 36.1213033,9.56457294 C36.1213033,9.50694217 35.4695304,9.09488214 35.377244,9.09488214 C35.3426366,9.09488214 35.3137971,9.07182983 35.3137971,9.04445521 C35.3137971,9.01563983 35.2301625,8.95944982 35.1263403,8.91766751 C35.0501516,8.89047773 34.9775273,8.85419593 34.910044,8.80960981 C34.8480391,8.73757134 34.0434168,8.34568209 33.9597823,8.34568209 C33.9107551,8.34568209 33.8718218,8.32551131 33.8718218,8.30245901 C33.8718218,8.26211746 33.4449971,8.0488836 32.80476,7.76649281 L32.3087205,7.54461434 C32.161639,7.47833895 32.0059057,7.42358971 31.9626464,7.42358971 C31.9179452,7.42358971 31.809797,7.38468894 31.7218365,7.34002509 C31.5595728,7.27152083 31.3903534,7.22079749 31.2171452,7.18874431 C31.0282464,7.15128431 30.8725131,7.10229815 30.8725131,7.07924584 C30.8725131,7.05619353 30.7239896,7.0057666 30.5408587,6.96398429 C30.4069827,6.94033379 30.2763229,6.90116863 30.1515254,6.84728198 C30.1198019,6.82134813 29.8602464,6.75363197 29.5747352,6.6960012 C29.2892241,6.63837042 29.0426463,6.5735358 29.0267846,6.55192426 C29.0109229,6.53175349 28.7903007,6.48132657 28.536513,6.4424258 C28.2827253,6.40208425 28.0491253,6.34877579 28.0174019,6.32428271 C27.9842364,6.29978963 27.6713278,6.24792194 27.3252537,6.2119027 C27.0727407,6.19102346 26.8221164,6.15153499 26.5754265,6.09375962 C26.082271,5.88196652 20.9430709,5.88196652 20.4614511,6.09375962 C20.3980042,6.122575 20.0735597,6.17588347 19.7404634,6.21334347 C19.4088091,6.25080347 19.121856,6.29978963 19.1059943,6.32428271 C19.0915745,6.34733502 18.8493227,6.39920272 18.5724634,6.43954426 C18.2956041,6.4798858 18.067772,6.5360758 18.067772,6.56489119 C18.067772,6.59370658 18,6.61675888 17.9178066,6.61675888 C17.7490955,6.61675888 17.1203942,6.76515813 16.9430313,6.84728198 C16.8795843,6.87609736 16.7108732,6.92940583 16.5681177,6.96542506 C16.4253621,7.0014443 16.2826066,7.05187122 16.2508831,7.07780507 C16.2191596,7.10373892 16.0403547,7.15272508 15.8543399,7.18730354 C15.6668831,7.221882 15.4851942,7.2737497 15.4491448,7.30256509 C15.4130954,7.33282124 15.261688,7.38901125 15.1117226,7.42647125 C14.9603152,7.46393125 14.8377473,7.51291741 14.8377473,7.53596972 C14.8377473,7.55902203 14.6820139,7.62529742 14.4916732,7.68292819 C14.3013324,7.74055897 14.1455991,7.80395282 14.1455991,7.82412359 C14.1455991,7.84285359 14.0287991,7.89328051 13.8860435,7.93650359 C13.743288,7.97828591 13.626488,8.03159437 13.626488,8.05464668 C13.626488,8.07769899 13.5226657,8.13100745 13.3957719,8.17278977 C13.2688781,8.21457208 13.1650559,8.264999 13.1650559,8.28516977 C13.1650559,8.30534054 13.0684435,8.35720824 12.9487596,8.39899055 C12.8305176,8.44221363 12.7065077,8.49696287 12.6747842,8.52145594 C12.6416188,8.54738979 12.4584879,8.64968441 12.2710311,8.74765673 C12.1266326,8.81605723 11.9910604,8.90168657 11.8672781,9.0026729 C11.8355546,9.04445521 11.7447102,9.09776368 11.6654015,9.12369753 C11.5860929,9.1481906 11.4130558,9.24328138 11.2803941,9.33260908 C11.1885413,9.40300358 11.0864123,9.45888455 10.9775793,9.49829755 C10.9429719,9.49829755 10.9155743,9.5242314 10.9155743,9.55592833 C10.9155743,9.58762525 10.8867348,9.6135591 10.8506854,9.6135591 C10.7684928,9.6135591 10.3618558,9.86569373 9.97108048,10.1610514 L9.50532244,10.5068361 C8.95520071,10.9152289 8.42354687,11.3478879 7.91193969,11.8035285 C7.18890803,12.4595768 6.49742497,13.14952 5.83982113,13.8710325 L5.37838902,14.3997948 C5.17629996,14.6180784 4.99209546,14.8522368 4.82755444,15.1000087 C4.75201491,15.21654 4.66917638,15.3281822 4.57953468,15.4342672 C4.55934702,15.4501157 4.48869023,15.5408841 4.42235937,15.6359749 L3.97534701,16.2814396 C3.79510009,16.5407781 3.64801861,16.7813865 3.64801861,16.8145242 C3.64801861,16.8476619 3.62638898,16.8750365 3.6018754,16.8750365 C3.53987046,16.8750365 2.66314945,18.3662328 2.51606796,18.7192213 L2.31419142,19.1658598 C2.2470164,19.3001207 2.19153579,19.4399113 2.14836425,19.5836829 C2.14836425,19.6153798 2.12529265,19.6413137 2.09645314,19.6413137 C2.06761363,19.6413137 2.02723832,19.7119114 2.00560869,19.7983575 C1.8948642,20.1204997 1.76039268,20.4340041 1.60329757,20.7362984 C1.56292226,20.8155407 1.49514942,21.0230115 1.45477411,21.1959038 C1.4143988,21.3687961 1.34950991,21.5431292 1.31057658,21.58203 C1.25231427,21.6686383 1.21390883,21.7670315 1.1981025,21.8701838 C1.1750309,21.9912084 1.13753954,22.1035885 1.11446793,22.1194369 C1.07120867,22.1482523 0.952966694,22.5516677 0.753974097,23.3584985 C0.71143331,23.5444521 0.657988022,23.727746 0.593914834,23.9074317 C0.567959278,23.9564178 0.517490141,24.1898225 0.478556807,24.4261086 C0.453729496,24.6112244 0.413208505,24.7938984 0.357430878,24.9721602 C0.328591371,25.0355541 0.262260505,25.3986279 0.213233344,25.778991 C0.161322232,26.1593541 0.0935493905,26.6520972 0.0589419823,26.8739757 C-0.0189246862,27.3955342 -0.0203666615,31.5363053 0.0589419823,32.0319299 C0.0906654398,32.23796 0.162764207,32.74367 0.21755927,33.15573 C0.273796308,33.56779 0.335801248,33.917897 0.357430878,33.9337455 C0.379060508,33.9495939 0.429529645,34.1829986 0.469904955,34.4524224 C0.510280264,34.7218463 0.563633352,34.9682178 0.588146933,34.9999148 C0.612660513,35.0316117 0.664571626,35.2261155 0.70350496,35.4321456 C0.742438294,35.6381756 0.80876916,35.8845471 0.85202842,35.9796379 C0.89528768,36.0747287 0.960176571,36.3023702 0.999109905,36.4839072 C1.03948521,36.6654441 1.08995435,36.8152841 1.11302596,36.8152841 C1.13609756,36.8152841 1.17358892,36.9132564 1.19521855,37.0313995 C1.22141989,37.1647167 1.26103505,37.2950478 1.31346053,37.4204072 C1.35671979,37.515498 1.46054201,37.7748365 1.54561856,37.996715 C1.63213708,38.2185935 1.80517412,38.6205681 1.93206795,38.889992 C2.05751981,39.1594158 2.22478895,39.5224897 2.30265561,39.6968228 C2.71794451,40.6232375 3.26877909,41.631776 3.57591984,42.0308691 C3.60043342,42.062566 3.65234453,42.1605384 3.69127787,42.2469845 C3.72876923,42.3334307 3.78789022,42.4054691 3.82105565,42.4054691 C3.85277911,42.4054691 3.87873466,42.4342845 3.87873466,42.4703038 C3.87873466,42.5524276 4.25941615,43.0797492 4.4670606,43.2843384 C4.55646307,43.3722254 4.62856184,43.4572308 4.62856184,43.4730792 C4.62856184,43.6171562 5.79656187,45.0737739 6.26952978,45.5189717 C6.63966641,45.8601253 6.99565245,46.2162943 7.33659153,46.5865817 C7.61056685,46.903551 8.78433477,47.8991226 9.17078417,48.1469349 C9.34814713,48.2593149 9.52406812,48.3817803 9.56300146,48.4192403 C9.83265085,48.671375 10.9718114,49.4666796 11.1405225,49.5214289 C11.2068533,49.5415997 11.2933719,49.5920266 11.3337472,49.6309274 C11.459199,49.7548335 12.7699546,50.4766589 13.0021126,50.5486974 C13.1232386,50.5861574 13.2227349,50.6365843 13.2227349,50.6610774 C13.2227349,50.6841297 13.2573423,50.7043005 13.3006015,50.7043005 C13.3438608,50.7043005 13.4923843,50.763372 13.6322559,50.8368513 C13.7721275,50.9088897 13.9956337,51.0039805 14.1311793,51.0472036 C14.266725,51.0904267 14.3763151,51.1451759 14.3763151,51.1682282 C14.3763151,51.1912805 14.4469719,51.2287405 14.5334905,51.2503521 C14.620009,51.2719636 14.7988139,51.3396798 14.9329176,51.4001921 C15.0684633,51.4607044 15.1924732,51.5111313 15.2126608,51.5111313 C15.2314065,51.5111313 15.3626263,51.562999 15.5010559,51.6263929 C15.6423695,51.6912275 15.8947152,51.7733514 16.0619843,51.8108114 C16.1773228,51.8311691 16.2893723,51.8670337 16.3950806,51.9174283 C16.4109424,51.9390398 16.5666757,51.9894668 16.7411547,52.0283675 C16.9156337,52.0701498 17.0843448,52.1220175 17.1160683,52.1450698 C17.1795152,52.1926152 17.7015103,52.325166 18.4715251,52.4908545 L19.2501918,52.6579837 C19.5241671,52.718496 20.4744289,52.8481653 21.4131548,52.9533414 C21.989945,53.0167353 25.1348932,53.0152945 25.6814018,52.9504599 L26.6331056,52.8366391 C27.4708932,52.737226 28.9287303,52.4692429 29.1133031,52.3799152 C29.1767501,52.3496591 29.3843945,52.2934691 29.5747352,52.2574498 C29.7125941,52.234996 29.8478542,52.1987959 29.9784883,52.1493921 C30.0102118,52.1277806 30.1789229,52.0744721 30.3534019,52.0341306 C30.5278809,51.9909075 30.6965921,51.9375991 30.7283155,51.913106 C30.760039,51.8886129 30.9547057,51.8223375 31.1609081,51.7661475 C31.3671106,51.7085167 31.5487995,51.6465636 31.5646612,51.6263929 C31.6597444,51.574751 31.7617076,51.5369107 31.867476,51.5140129 C32.0174415,51.4722306 32.1414514,51.4203629 32.1414514,51.3987513 C32.1414514,51.3771398 32.2712291,51.3267129 32.4298464,51.2863713 C32.5884637,51.2460298 32.7182415,51.1912805 32.7182415,51.1667875 C32.7182415,51.1408536 32.7903403,51.1033936 32.8768588,51.0817821 C32.9633773,51.0616113 33.2560983,50.9405867 33.5257477,50.8123582 L34.2755749,50.4608105 C34.9273477,50.1539266 36.196286,49.4076081 36.5091947,49.1482696 C36.5767726,49.0991437 36.6492575,49.0571376 36.725491,49.0229227 C36.8047996,48.9869035 36.8711305,48.9364765 36.8711305,48.9119835 C36.8711305,48.8874904 36.9187157,48.8529119 36.9763947,48.8341819 C37.0340737,48.8154519 37.132128,48.7563804 37.192691,48.7001904 C37.2561379,48.6454411 37.4363848,48.5100088 37.5935601,48.4005103 C37.7202591,48.312805 37.8447871,48.2220093 37.9670317,48.1282049 L38.3996243,47.7809795 C39.3599799,47.0087272 41.3124145,45.1213193 41.3124145,44.9628347 C41.3124145,44.9426639 41.3700935,44.8691847 41.4421923,44.8000278 C41.7026486,44.5254438 41.9467616,44.2358321 42.1732738,43.9326846 C42.2561479,43.8219126 42.3437071,43.7147182 42.4357133,43.6113931 C42.4847405,43.5609661 42.5236738,43.4903684 42.5236738,43.45579 C42.5236738,43.4197708 42.5582812,43.3693438 42.5986565,43.3448507 C42.745738,43.2540823 43.5618961,42.0164614 43.5618961,41.8824699 C43.5618961,41.8536545 43.5835257,41.8291614 43.6109232,41.8291614 C43.6383208,41.8291614 43.7060936,41.725426 43.7637726,41.5986383 C43.8214516,41.4718506 43.8877825,41.3681152 43.9122961,41.3681152 C43.9382516,41.3681152 43.975743,41.3104844 43.9973726,41.238446 C44.0190022,41.1664075 44.1199405,40.9791075 44.2237627,40.8206229 C44.4934121,40.4027998 45.2518912,38.8237166 45.3239899,38.5297996 C45.3456196,38.4433535 45.3816689,38.371315 45.4061825,38.371315 C45.4306961,38.371315 45.4854912,38.2474088 45.5273085,38.0975688 C45.5691257,37.9477288 45.6368986,37.7604288 45.6772739,37.6811865 C45.7176492,37.603385 45.7666764,37.4276111 45.786864,37.2921788 C45.8084936,37.1567465 45.844543,37.0458072 45.8661727,37.0458072 C45.8892443,37.0458072 45.9555751,36.8383364 46.0132541,36.584761 C46.0709332,36.3311856 46.137264,36.1237148 46.1588937,36.1237148 C46.1819653,36.1237148 46.2309924,35.9609079 46.2713677,35.7635225 C46.3088591,35.5646963 46.3622122,35.3773963 46.3867258,35.3456994 C46.4126813,35.3140025 46.4645924,35.0935648 46.5035258,34.8558378 C46.5424591,34.6181109 46.5943702,34.3976732 46.6188838,34.3659763 C46.6433974,34.3342793 46.6938665,34.0749409 46.7327998,33.7896685 C46.7717332,33.5043962 46.8250863,33.2191239 46.8524838,33.15573 C47.0630122,32.66875 47.135111,27.6923327 46.9490961,26.4129295 C46.7890369,25.3136225 46.6780048,24.6883286 46.6217677,24.5687448 C46.5929282,24.5053509 46.5352492,24.2661832 46.4977579,24.0356601 C46.4588245,23.805137 46.4097974,23.617837 46.3881677,23.617837 C46.3665381,23.617837 46.316069,23.4363001 46.2771356,23.2144216 C46.2367603,22.9925431 46.1862912,22.8110062 46.1632196,22.8110062 C46.1415899,22.8110062 46.0896788,22.6481993 46.0478616,22.4508139 C46.0125839,22.2696145 45.9634117,22.0913941 45.9007801,21.9177292 C45.8046825,21.6657529 45.7157253,21.4111155 45.6340146,21.1541215 C45.5287504,20.8285076 45.4249282,20.563406 45.4032986,20.563406 C45.3816689,20.563406 45.3485035,20.4841637 45.3283159,20.3861914 C45.261985,20.0504922 44.0276541,17.6314404 43.8964343,17.5766912 C43.8704788,17.5651651 43.8502911,17.5233827 43.8502911,17.4830412 C43.8502911,17.4426997 43.7205133,17.2179396 43.5618961,16.984535 C43.4032788,16.7511304 43.273501,16.535015 43.273501,16.5061996 C43.273501,16.4773842 43.2302417,16.4053457 43.1783306,16.347715 C43.0874862,16.2468611 43.0918121,16.241098 43.2590812,16.241098 C43.3571356,16.241098 43.446538,16.2742357 43.4609578,16.3131365 C43.4941232,16.4111088 45.9599011,16.4168719 46.1632196,16.3188996 C46.3440289,16.2561989 46.5304048,16.21085 46.7198221,16.1834673 C46.9505381,16.1460073 47.1509727,16.0941396 47.1668344,16.0682057 C47.1812542,16.0437126 47.2922863,16.0062526 47.4119702,15.9846411 C47.5302122,15.9630296 47.7912097,15.8693795 47.9887604,15.7757295 C48.1229627,15.7074582 48.2628875,15.6510531 48.4069332,15.6071595 C48.4376954,15.607198 48.4630741,15.5831083 48.4646122,15.5524103 C48.4646122,15.5207134 48.5684344,15.4659641 48.6953283,15.4270634 C48.8222221,15.3896034 48.9260443,15.3377357 48.9260443,15.3132426 C48.9260443,15.2887495 48.9793974,15.2527303 49.0428443,15.2325595 C49.3744987,15.1273833 50.4415604,14.2369879 51.0183506,13.5843194 C51.4134518,13.1376809 51.4163357,13.1347994 51.6196543,12.8149486 C51.7205925,12.6550232 51.8258567,12.4979793 51.8503703,12.4662824 C51.8763259,12.4345855 51.9412148,12.3178831 51.9974518,12.2069439 C52.0522469,12.0960047 52.1214617,11.9663354 52.1517432,11.91879 C52.2921716,11.671325 52.4080796,11.4107501 52.4978173,11.1407746 C52.5381926,11.0139869 52.6045234,10.83245 52.6448987,10.7373592 C52.688158,10.6422684 52.7400691,10.4477645 52.7616987,10.3051284 C52.7847703,10.1624922 52.8265876,10.0169745 52.8539852,9.98383682 C53.0169284,9.78212911 53.0558617,7.29392047 52.9073383,6.64557427 L52.7660247,6.02604346 C52.7313453,5.8594307 52.6841061,5.69567666 52.6247111,5.53618188 C52.5958716,5.48143265 52.4761876,5.2019234 52.3565037,4.91665107 C52.2854023,4.72820617 52.2005794,4.54521898 52.102716,4.36915872 C52.0534225,4.30344225 52.0145168,4.23055506 51.987358,4.15304332 C51.9455407,4.0507487 51.8907456,3.96574331 51.8647901,3.96574331 C51.8388345,3.96574331 51.7999012,3.90811254 51.7782716,3.83607407 C51.6557037,3.44706635 50.7487012,2.4486132 49.7364345,1.58847391 C49.5720493,1.44727851 48.6679307,0.911312322 48.595832,0.911312322 C48.5554567,0.911312322 48.5222912,0.885378474 48.5222912,0.853681549 C48.5222912,0.821852951 48.4964675,0.796050775 48.4646122,0.796050775 C48.4328888,0.796050775 48.245432,0.719690001 48.0464394,0.627480763 C47.8741452,0.544052549 47.6957951,0.473735424 47.5129085,0.41712844 C47.432049,0.400210108 47.3542477,0.371059026 47.2821924,0.33068228 C47.250469,0.307629971 47.0038912,0.24423612 46.7342418,0.189486886 L46.0132541,0.043969183 C45.7335109,-0.016543129 43.913738,-0.0136615904 43.5907356,0.0468507217 M46.3016492,2.31606242 C49.2101135,3.12145248 51.0601678,5.66873266 50.8626172,8.59637595 C50.581432,12.7227393 46.3261628,15.3579064 42.4717627,13.7903494 L42.104059,13.6405094 L41.8762269,13.8595063 C41.4075849,14.3147894 29.0267846,26.6751496 29.0267846,26.6895572 C29.0267846,26.6967611 29.1060933,26.909995 29.2027056,27.1621296 C31.0325723,31.9080238 26.7080883,36.6366287 21.8327696,35.2246748 C18.9343992,34.386147 17.0857868,31.4354514 17.5760584,28.4300066 C18.2162955,24.4995879 22.5104981,22.2058831 26.0765031,23.8915832 L26.2697278,23.9823517 L32.8090859,17.4455812 L39.3513281,10.9102515 L39.178291,10.463613 C37.3787058,5.83442114 41.5935997,1.01504771 46.3030912,2.31750319 M26.1731154,7.87887282 C28.7081081,8.17711207 30.931634,8.84706981 33.2964736,10.0241784 C34.2553872,10.501073 35.6267058,11.3064631 35.7651354,11.4721515 C35.8156045,11.5341046 34.7759403,12.6017147 30.7946464,16.5796788 L25.7607105,21.6094046 L25.3324438,21.5229584 C19.8933128,20.4063622 14.9862707,24.7430779 15.5270115,30.1877452 C16.1759004,36.7245157 23.9279598,39.7847097 28.9056587,35.4696056 C31.1306266,33.5389747 32.160197,30.2929213 31.4319995,27.4978288 L31.3541328,27.1995896 L36.3779749,22.18139 C39.1407997,19.420876 41.4277726,17.1631904 41.459496,17.1631904 C41.7363553,17.1631904 43.4551899,20.4985714 44.0709134,22.2346985 C46.6131159,29.3866774 45.0081973,37.9333211 40.0809676,43.4918092 C39.5820441,44.0537093 38.5914071,45.1083524 38.5452638,45.1242009 C38.5164243,45.1342863 38.3433873,45.2870078 38.1588145,45.4642224 C35.9151008,47.6152911 32.3087205,49.570415 29.065718,50.3902128 C17.0108041,53.4417622 5.08566802,46.1457063 2.3560087,34.049007 C1.63790498,30.8677883 1.73163338,26.5829403 2.57951488,23.7979332 L2.83186056,22.9507608 C5.33801371,14.4646294 13.1491941,8.39466824 22.39514,7.74632204 C23.1218956,7.69589512 25.2387154,7.77081512 26.1731154,7.88031359" id="Shape" fill="#FAFAFA"></path>
            <path d="M11.4012292,11.4662123 C10.4014024,12.148932 8.73740478,13.5129279 8.74452349,13.645719 C8.74452349,13.6659263 8.94451177,13.8954241 9.18732687,14.1537894 L10.6242209,15.6837742 C11.1661675,16.2604689 11.7089312,16.8363789 12.2525104,17.4115023 L13.2837604,18.5084726 C13.5037223,18.7451872 14.1736063,19.4582178 14.7720741,20.0933059 L16.8774238,22.3305478 C17.8515409,23.366896 17.9629501,23.4708195 18.0057999,23.366896 C18.037223,23.2932835 18.7013937,22.7534587 18.9442088,22.6062337 L19.1855956,22.4575654 C19.0616387,22.2183851 18.9257739,21.9857025 18.7785232,21.7604119 C17.6901402,19.999486 16.0418542,17.3191259 14.5421139,14.8682634 C12.4967538,11.5268344 12.1668109,11 12.1211046,11 C11.8744903,11.1446502 11.6342991,11.300205 11.4012292,11.4662123 M2,29.8173696 C2,30.4221466 2.16140062,32.3043166 2.25138504,32.7474348 C2.29423476,32.9639421 2.34851108,33.2713824 2.36993594,33.4301545 C2.52990824,34.58486 3.1969356,36.7210651 3.86539127,38.2221823 C4.27960526,39.1517202 4.76666378,40.0725979 4.83665166,40.0581641 C4.89521295,40.046617 5.11945983,39.9195994 10.5413781,36.796121 C12.4873888,35.672841 14.4346719,34.5518136 16.3832237,33.4330412 C16.3917936,33.4258243 16.2732427,33.148695 16.1189837,32.8181605 C15.6776316,31.8669719 15.3705419,30.5982392 15.3691136,29.720663 L15.3691136,29.4175528 L2,29.4175528 L2,29.8173696 M27.0328082,36.6691034 C25.0417244,37.7011214 22.5650104,37.8339126 20.5739266,37.0169584 L20.2425554,36.8798372 L19.8240564,37.8396861 C19.3084314,39.0232593 19.2741517,39.1040886 18.9213556,39.9253729 L17.8543975,42.4079898 C17.4230436,43.4082534 16.7760128,44.9151441 16.4160751,45.7566357 C15.7161963,47.3876573 15.2691309,48.4211187 15.044884,48.924859 C14.8806267,49.2943647 14.8363487,49.2351861 15.4919494,49.5050985 C16.8174342,50.0535836 18.5814145,50.5544371 19.8826177,50.7536238 C20.2125606,50.8055856 20.6239179,50.8705377 20.7967452,50.9008488 C21.7137292,51.0625075 25.617339,51.0163193 26.498615,50.8358966 C26.6457323,50.8070289 26.9985284,50.7420768 27.2813366,50.6944452 C28.8496364,50.4303063 30.3322368,49.9727542 32.1376385,49.193328 C32.8848115,48.8434766 33.618548,48.4650371 34.3372576,48.0588298 L34.740045,47.8019079 L35,47.6359189 L34.5572195,46.9430956 C34.3144044,46.5591561 34.0001731,46.0655195 33.8616257,45.8432386 C33.5015718,45.2743466 33.1397278,44.7066135 32.7760994,44.140048 C32.3176073,43.425574 31.7719875,42.5682052 31.5663089,42.2347839 C31.3124552,41.8285385 31.0553484,41.4243784 30.7950139,41.0223432 C30.5807652,40.6889219 30.1908328,40.0783714 29.9308778,39.6655642 C29.6709228,39.252757 29.3009868,38.6681873 29.1081631,38.3665205 C28.7232768,37.7678836 28.3419075,37.1669451 27.9640755,36.5637365 C27.8712344,36.4150682 27.7826783,36.2952675 27.7669668,36.2981032 C27.7512552,36.301041 27.4213123,36.4684733 27.0328082,36.6691034" id="Shape" fill="#93D30C"></path>
            <path d="M44.0872672,2.05348451 C40.2601009,2.53454407 37.8565595,6.81222932 39.420379,10.3611238 L39.5692454,10.6967132 L32.9786568,17.2644724 L26.3909589,23.829351 L25.9602581,23.6565152 C22.5276599,22.2882321 18.7525245,24.182224 17.8304203,27.733999 C17.1280023,30.4417594 18.4533465,33.3309973 20.9623951,34.5638925 C25.9732659,37.0224813 31.2818693,32.1182664 29.2425447,26.9159097 L29.0647722,26.4650964 L35.6221187,19.9275835 C40.7717387,14.7943612 42.2040355,13.3958318 42.2950897,13.4174363 C42.358683,13.4318392 42.6188379,13.522578 42.8732115,13.6205183 C45.0122621,14.4458091 47.5242014,13.9085779 49.179075,12.2738396 C53.3126459,8.18771398 49.8930554,1.32613399 44.0872672,2.05348451 M23.7084737,14.3075405 L23.7084737,21.0394936 L24.412337,21.1071876 C24.7996786,21.1446354 25.2751838,21.2180906 25.4717452,21.2699413 L25.8272901,21.365001 L30.8424967,16.3743682 C33.601583,13.6306004 35.8432503,11.3592503 35.8245786,11.3290041 C35.8056724,11.3001981 35.523838,11.1129594 35.1986445,10.9156385 C34.8720057,10.719758 34.5395857,10.5123551 34.4586486,10.4576237 C34.2996651,10.3481611 32.8572512,9.61648966 32.4381129,9.43213151 C29.9406267,8.33318408 26.5918562,7.60295296 23.9541755,7.57990819 L23.7084737,7.5770276 L23.7084737,14.3075405 M8.08184136,14.189436 C5.8806426,16.4089353 4.26623747,19.0432405 3.10999386,22.2968738 C2.4406122,24.2265918 2.07306166,26.2474325 2.02023426,28.2885138 L2,29.1526926 L15.470238,29.1526926 L15.5121518,28.6341853 C15.6493654,26.8088389 16.392264,25.0809065 17.6237417,23.7227689 L17.9995209,23.3050825 L17.776944,23.0602318 C17.5211251,22.7779334 16.9430033,22.167247 16.0743753,21.2612995 C15.6695161,20.8394116 15.2657929,20.4164426 14.8632101,19.9923969 L13.7358726,18.8113525 C13.4468117,18.5103302 12.9669706,18.0047856 12.6677926,17.68792 C12.3686145,17.3710545 11.8728751,16.8525471 11.5693611,16.5356816 C11.0172557,15.9613921 10.4670734,15.3852697 9.91882339,14.8073239 C9.31757672,14.1735927 8.79582179,13.6363616 8.75968918,13.6133168 C8.72066596,13.5888317 8.45183932,13.8149585 8.08039606,14.189436 M36.5572308,22.0102545 C33.8154881,24.7439403 31.5709302,27.0210515 31.5709302,27.0685813 C31.5709302,27.1161112 31.6099534,27.3076708 31.6576485,27.492029 C31.7053435,27.6763871 31.7674916,28.1228795 31.7963977,28.482954 C31.8253038,28.8430286 31.8729989,29.1598941 31.9004596,29.1887001 C31.930811,29.2175061 34.7578266,29.2333493 38.6558129,29.2247075 L45.3591352,29.2103046 L45.3389009,28.4901555 C45.2810888,26.4204472 44.8185913,23.8956047 44.1624231,22.0952321 C43.6695742,20.7427922 43.2475453,19.8022776 42.6867672,18.8113525 C42.2473946,18.0335916 41.6143512,17.0225023 41.5738827,17.0310891 C41.556539,17.0340247 39.2989734,19.2751285 36.5572308,22.0088142 M29.0286396,35.3502952 C28.8410045,35.5191147 28.6436245,35.6768565 28.43751,35.822713 C28.2871984,35.9249741 28.1629022,36.0358771 28.1614569,36.0704443 C28.1614569,36.1266159 28.9520384,37.3811155 29.9030488,38.8314956 C30.1097274,39.1483612 30.4190225,39.6279805 30.5866778,39.8973162 C30.786703,40.2156456 30.989051,40.5325195 31.1937057,40.8479129 C31.8335939,41.8284389 32.4700136,42.8112084 33.102953,43.7962031 L33.7359964,44.7799267 L34.4340784,45.8601502 L35.1191528,46.9115678 C35.2680191,47.1420155 35.4125496,47.3292542 35.4385651,47.3292542 C35.7045011,47.3292542 38.8552649,44.8130535 38.8552649,44.6013297 C38.8552649,44.5696431 38.0516756,43.7371509 37.0688686,42.7534273 C36.2225987,41.9067861 35.3794985,41.0570043 34.5395857,40.2040997 C32.030537,37.634608 29.4593403,35.0579147 29.4073094,35.0607929 C29.3726221,35.0607929 29.2020761,35.1918624 29.0286396,35.3502952 M16.8880817,36.1712651 C16.3345301,36.7473843 15.4239883,37.6850184 14.8646554,38.2553764 C13.9762799,39.1661733 13.0893436,40.0783632 12.2038498,40.9919427 L9.58784866,43.6853001 C8.46195645,44.8389789 8.52554985,44.6891879 8.98082077,45.1183967 C9.77573825,45.8673517 12.2645526,47.7325377 12.4683405,47.7325377 C12.4885748,47.7325377 12.5781837,47.7858287 12.6692379,47.8492018 C12.8282214,47.9644257 14.8762179,49 14.9412566,49 C14.9802798,49 15.0279748,48.8948582 15.6046513,47.5597019 C16.0035554,46.63215 16.9054254,44.5826058 17.060073,44.2470164 C17.7180426,42.7173384 18.3828894,41.1906071 19.0545932,39.6668685 C19.4925204,38.668742 19.9622444,37.5870781 20.0995483,37.2644514 L20.3481407,36.6768097 L19.931893,36.4535635 C19.3997527,36.1734404 18.8967434,35.8415138 18.4302216,35.4626385 C17.8911231,35.030549 18.0688955,34.9484521 16.889527,36.1727054" id="Shape" fill="#495335"></path>
            <path d="M45.0751056,2.02733311 C45.130808,2.04171896 45.2207888,2.04171896 45.275063,2.02733311 C45.3293371,2.01294726 45.2850608,2 45.1750843,2 C45.0651077,2 45.0194032,2.01150868 45.0751056,2.02733311 M48.6886212,3.71335435 C48.842874,3.87159867 48.9828442,4.00107129 48.9985551,4.00107129 C49.0142661,4.00107129 48.9000047,3.87159867 48.7457519,3.71335435 C48.591499,3.55511004 48.4515289,3.42563742 48.4358179,3.42563742 C48.420107,3.42563742 48.5343684,3.55511004 48.6886212,3.71335435 M40.2589891,3.75651189 L40.0618883,3.97229959 L40.2761283,3.77377491 C40.4760857,3.58963607 40.5160772,3.54072419 40.4732292,3.54072419 C40.4632313,3.54072419 40.3675374,3.63854795 40.2589891,3.75651189 M22.0085929,7.62918184 C18.832127,7.84640813 15.8042009,8.76134798 12.9390972,10.3711242 C12.1021328,10.8401028 12.1335546,10.7465948 12.5706043,11.4414312 C12.7734183,11.7636742 13.6789396,13.2324692 14.5816043,14.7041413 C15.3593805,15.9716784 16.139692,17.2376355 16.922534,18.5020048 C17.3067378,19.1191577 17.9366036,20.1419914 18.3222357,20.7749686 C18.7107243,21.4079459 19.0749324,21.996327 19.1349197,22.0826421 L19.2420397,22.2380092 L19.7976356,21.9560466 C21.03023,21.3288237 22.415649,21.0108965 23.693948,21.0626856 C23.8881924,21.0713171 23.9153294,21.0670013 23.7653614,21.0511769 L23.522556,21.0281595 L23.522556,7.56876129 L23.0797932,7.57739279 C22.8369878,7.58170855 22.3542336,7.60616449 22.0085929,7.62918184 M24.3937989,7.61048024 C24.4809232,7.6234275 24.6094672,7.6234275 24.6794523,7.61048024 C24.7508656,7.5960944 24.6794523,7.58458572 24.5223429,7.58458572 C24.3652335,7.58458572 24.3081029,7.5960944 24.3937989,7.61048024 M25.3078898,7.66658504 C25.3621639,7.68097089 25.4521448,7.68097089 25.5078472,7.66658504 C25.5621213,7.6521992 25.517845,7.63925194 25.4078685,7.63925194 C25.2978919,7.63925194 25.2536156,7.65076061 25.3078898,7.66658504 M25.7363699,7.72412843 C25.8077832,7.73851428 25.9220446,7.73851428 25.993458,7.72412843 C26.0648713,7.70974259 26.0063124,7.69967249 25.8649139,7.69967249 C25.7235155,7.69967249 25.6649565,7.71118117 25.7363699,7.72412843 M26.250546,7.78167182 C26.3219594,7.79605767 26.4247946,7.79605767 26.4790688,7.78167182 C26.5347712,7.76728597 26.4762122,7.75577729 26.3505247,7.75577729 C26.2248372,7.75577729 26.1791327,7.76872456 26.250546,7.78167182 M28.7500133,8.25928193 C28.8228521,8.28842164 28.9001945,8.30448874 28.9785361,8.30675523 C29.0699452,8.30675523 29.0642321,8.29668513 28.9499707,8.25928193 C28.7542981,8.19598421 28.6043301,8.19598421 28.7500133,8.25928193 M32.6063343,9.61155153 C32.6063343,9.65039332 32.9562598,9.82446206 32.9819686,9.79856754 C32.994823,9.78562027 32.91484,9.73239264 32.8062917,9.68060359 C32.6963152,9.62737596 32.6063343,9.59716568 32.6063343,9.61155153 M33.0633798,9.83884791 C33.0633798,9.85467234 33.166215,9.92084723 33.2919025,9.98558355 C33.41759,10.0503199 33.5204253,10.0906002 33.5204253,10.0747758 C33.5204253,10.0589514 33.41759,9.99277647 33.2919025,9.92804016 C33.166215,9.86330385 33.0633798,9.82302348 33.0633798,9.83884791 M34.0917321,10.4027731 C34.193139,10.5005969 34.7744437,10.8343485 34.6916042,10.7465948 C34.6601823,10.7135074 34.4930751,10.604175 34.3202548,10.503474 C34.1474345,10.4027731 34.0445993,10.358177 34.0917321,10.4027731 M34.8629963,10.877506 C34.92584,10.9307337 35.0286752,10.9969086 35.091519,11.0285574 L35.2057804,11.0861008 L35.091519,10.9911542 C35.0204285,10.9338163 34.9438817,10.8837014 34.8629963,10.8415414 L34.7487349,10.783998 L34.8629963,10.8789446 M35.2343457,11.0947323 C35.2343457,11.106241 35.3171852,11.1767317 35.4200204,11.2529766 C35.5342818,11.3364146 35.5742733,11.3508004 35.5242839,11.2875027 C35.4485858,11.1939947 35.2343457,11.0515748 35.2343457,11.0947323 M41.2045019,13.9704631 L40.6331951,14.5602828 L41.2187846,13.9848489 C41.5401447,13.6697989 41.8043741,13.4050993 41.8043741,13.3950292 C41.8043741,13.3547489 41.7329607,13.4238009 41.2045019,13.9704631 M8.52146729,13.6827462 L8.35436005,13.8697622 L8.52575209,13.714395 C8.73856388,13.5216247 8.61144812,13.4223623 9.89688845,14.7904564 C10.4896193,15.4234336 11.2237485,16.2002694 11.5251129,16.516758 C11.8279055,16.8332466 12.3163728,17.3511371 12.6120241,17.6676257 C12.9076754,17.9841144 13.3832883,18.4890576 13.6689417,18.7897218 L14.78299,19.9693612 C15.1086349,20.3174987 15.6470915,20.8886168 15.9784495,21.2367543 C16.5460049,21.8306512 17.1078165,22.4300898 17.6638046,23.0349852 L17.8837577,23.2824217 L17.6895134,23.4967708 L17.4952691,23.7096814 L17.735218,23.4852622 L17.9751668,23.2608429 L16.9368167,22.1617643 L14.8129836,19.9118178 C14.2131114,19.2788406 13.5446825,18.5681797 13.3247293,18.3336904 C12.9823189,17.9679827 12.6385803,17.6035388 12.2935205,17.2403661 C11.5079737,16.4117413 9.8169055,14.6192648 9.21846161,13.977656 C8.70142894,13.4223623 8.73999215,13.4396254 8.52146729,13.6827462 M8.09298718,14.1143216 L7.8973146,14.3301093 L8.11155465,14.1315846 C8.31151204,13.9474457 8.35150352,13.8985339 8.30865551,13.8985339 C8.29865764,13.8985339 8.20296374,13.994919 8.09441545,14.1143216 M44.9608442,13.9963576 C45.0151184,14.0107435 45.1050992,14.0107435 45.1608016,13.9963576 C45.2150758,13.9819718 45.1707995,13.9690245 45.0608229,13.9690245 C44.9508464,13.9690245 44.9051418,13.9805332 44.9608442,13.9963576 M7.66450707,14.545897 L7.49739983,14.732913 L7.68307454,14.5645986 C7.75055263,14.5081529 7.81270839,14.4455481 7.86874926,14.3775826 C7.86874926,14.3329864 7.82161645,14.3718282 7.66450707,14.545897 M34.6916042,20.5304092 L28.807144,26.4717639 L34.7058869,20.5447951 C40.1904323,15.0350158 40.6303386,14.5890545 40.5903471,14.5890545 C40.5817775,14.5890545 37.9280573,17.2619448 34.6916042,20.5304092 M7.23602696,15.0350158 C6.89895594,15.4148021 6.82182952,15.5097487 6.85182313,15.5097487 C6.86896233,15.5097487 7.0046477,15.3673288 7.1517592,15.1932601 C7.42598648,14.8710171 7.49168676,14.7472988 7.23602696,15.0350158 M40.1161624,18.0560436 L39.8904962,18.300603 L40.1333016,18.0733066 C40.3589678,17.8618347 40.4018158,17.8114842 40.3589678,17.8114842 C40.3503982,17.8114842 40.2404217,17.9222552 40.1161624,18.0560436 M42.1757235,18.6170916 C42.2242846,18.7120382 42.2771305,18.7897218 42.2928414,18.7897218 C42.3085523,18.7897218 42.2814153,18.7120382 42.2328542,18.6170916 C42.1842931,18.522145 42.1314472,18.4444614 42.1157363,18.4444614 C42.1000253,18.4444614 42.1271624,18.522145 42.1757235,18.6170916 M4.23809445,19.5435401 C4.1881051,19.6413639 4.15668323,19.7305562 4.16953763,19.744942 C4.18239203,19.7564507 4.23523791,19.6758899 4.28665553,19.5651189 C4.40377342,19.3176823 4.36378195,19.2989807 4.23809445,19.5435401 M3.82246874,20.4325855 C3.72677485,20.6440574 3.74391405,20.6886535 3.84817755,20.4958832 C3.89673863,20.4066909 3.92530397,20.323253 3.91244956,20.3088672 C3.89816689,20.2959199 3.85817542,20.3520247 3.82104047,20.4325855 M43.2369259,20.7749686 C43.2369259,20.8066175 43.2740609,20.8972483 43.3183371,20.9763705 C43.3626134,21.0554926 43.3997484,21.0943344 43.3997484,21.0626856 C43.3997484,21.0310367 43.3626134,20.9404059 43.3183371,20.8612837 C43.2740609,20.7821615 43.2369259,20.7433198 43.2369259,20.7749686 M43.4654486,21.3504025 C43.4654486,21.3820514 43.5025836,21.4726822 43.5468599,21.5518044 C43.5911361,21.6309265 43.6282711,21.6697683 43.6282711,21.6381194 C43.6282711,21.6064706 43.5911361,21.5158397 43.5468599,21.4367176 C43.5025836,21.3575954 43.4654486,21.3187536 43.4654486,21.3504025 M3.30400781,21.7301889 C3.2697294,21.8323284 3.25116192,21.9258364 3.26258806,21.937345 C3.27544246,21.9517309 3.31400567,21.8769245 3.34828408,21.7762236 C3.38399076,21.6740841 3.40255823,21.580576 3.39113209,21.5690674 C3.37827769,21.5546815 3.33971448,21.6294879 3.30543607,21.7301889 M43.9253506,22.6451287 C43.9253506,22.692602 43.9482029,22.7832328 43.97534,22.8465306 C44.0067618,22.9184598 44.023901,22.9299685 44.023901,22.8753023 C44.023901,22.827829 44.002477,22.7371981 43.97534,22.6739004 C43.9439181,22.6019712 43.9267789,22.5904625 43.9267789,22.6451287 M44.1553016,23.4507361 C44.1553016,23.4982094 44.1767256,23.5888403 44.2038627,23.652138 C44.2352846,23.7240672 44.2524238,23.7355759 44.2524238,23.6809097 C44.2524238,23.6334364 44.2309998,23.5428055 44.2038627,23.4795078 C44.1724408,23.4075786 44.1553016,23.3960699 44.1553016,23.4507361 M17.2895986,23.9542408 C17.1067805,24.1556426 16.9896626,24.3138869 17.0182279,24.3138869 C17.0325106,24.3138869 17.1396306,24.1973616 17.2567485,24.0549417 C17.4938408,23.7701019 17.5138366,23.7024884 17.2881704,23.9542408 M19.2377549,24.9180925 C19.099213,25.0605124 18.997806,25.1770377 19.013517,25.1770377 C19.0292279,25.1770377 19.1563437,25.0605124 19.2948856,24.9180925 C19.4334275,24.7756726 19.5348344,24.6591473 19.5191235,24.6591473 C19.5034125,24.6591473 19.3762968,24.7756726 19.2377549,24.9180925 M2.30850568,25.4590003 C2.28748783,25.5627033 2.27648648,25.668212 2.27565554,25.7740504 C2.27994034,25.8416639 2.30422088,25.7798047 2.33278622,25.6373848 C2.36135156,25.494965 2.37563423,25.3525451 2.36563636,25.3208962 C2.35563849,25.2906859 2.32992969,25.3525451 2.30850568,25.4590003 M44.7308932,26.3279055 C44.7308932,26.4386765 44.7423194,26.4832726 44.7580303,26.4286064 C44.772313,26.3739402 44.772313,26.2833094 44.7580303,26.2272046 C44.7437476,26.1725383 44.7308932,26.2171345 44.7308932,26.3279055 M2.1128331,27.0759695 C2.1128331,27.1867405 2.1256875,27.2327752 2.13997017,27.1766704 C2.15425284,27.1220042 2.15425284,27.0313734 2.13997017,26.9752686 C2.1256875,26.9191638 2.1128331,26.9651985 2.1128331,27.0759695 M15.6113849,27.2485997 C15.5899609,27.3493006 15.5828195,27.44137 15.5971022,27.4557559 C15.6128131,27.4701417 15.6399502,27.3996511 15.6613742,27.2989501 C15.708507,27.0587065 15.6628025,27.0126718 15.6113849,27.2485997 M44.8480111,27.3636864 C44.8480111,27.4744575 44.858009,27.5204922 44.8737199,27.4643874 C44.8880026,27.4097212 44.8880026,27.3190903 44.8737199,27.2629855 C44.8594373,27.2068807 44.8465829,27.2529154 44.8465829,27.3636864 M2.06284375,27.9391203 C2.06284375,28.2081357 2.07284162,28.3174681 2.08426776,28.1836797 C2.09712216,28.0484528 2.09712216,27.8297879 2.08426776,27.6945609 C2.07284162,27.559334 2.06284375,27.670105 2.06284375,27.9391203 M44.9108549,28.3994674 C44.9108549,28.6684828 44.9208527,28.7792538 44.9322789,28.6440268 C44.9451333,28.5087999 44.9451333,28.2886964 44.9322789,28.154908 C44.9208527,28.0196811 44.9108549,28.1304521 44.9108549,28.3994674 M15.4085709,28.7447277 L15.3828621,29.1187598 L2.06998508,29.1187598 L2.03570668,28.7734994 L2,28.4282391 L2.00714134,28.8022711 L2.0128544,29.1763031 L8.71142681,29.190689 L15.4071427,29.2050748 L15.4414211,29.0712865 C15.4599886,28.9993572 15.4657016,28.8109026 15.4542755,28.6540969 C15.4342798,28.3750115 15.4328515,28.3764501 15.4071427,28.7447277 M29.4227271,28.7447277 C29.4227271,28.8871476 29.4341533,28.9461296 29.4470077,28.8742004 C29.4612903,28.8022711 29.4612903,28.6871844 29.4470077,28.6152551 C29.432725,28.5433259 29.4227271,28.6023079 29.4227271,28.7447277 M31.5051405,29.6941936 C31.4194444,31.6578617 30.6267562,33.4431453 29.2084871,34.8730985 C28.8942683,35.1895871 28.7414437,35.3507086 28.8671312,35.2327446 C28.994247,35.1147807 29.1242193,35.0169569 29.1556412,35.0169569 C29.2056305,35.0169569 31.823644,37.6697071 34.2259892,40.1555814 C34.6301887,40.572771 35.7542349,41.7193229 36.7254565,42.7018763 C37.6966781,43.6858682 38.4907945,44.5116158 38.4907945,44.5389489 C38.4907945,44.5677206 38.4465183,44.642527 38.3908159,44.7087019 C38.1994281,44.9359983 39.3306156,43.7333415 39.6848258,43.3319764 C42.6013471,40.0261088 44.6451972,35.0932019 44.8594373,30.8450614 L44.9194245,29.6941936 L44.9479898,29.1763031 L31.6122605,29.1763031 L31.5765538,29.0324447 C31.5565581,28.9533225 31.5251362,29.2511095 31.5051405,29.6941936 M29.4227271,29.6078785 C29.4227271,29.7502984 29.4341533,29.8092804 29.4470077,29.7373512 C29.4612903,29.6654219 29.4612903,29.5503352 29.4470077,29.4784059 C29.432725,29.4064767 29.4227271,29.4654587 29.4227271,29.6078785 M15.7813486,33.5711793 C15.1886178,33.9164397 8.67572013,37.6567598 6.46904756,38.91696 C5.77776631,39.3125708 5.12647655,39.6866028 5.02364132,39.7484619 L4.8379666,39.8635487 L5.01649998,40.1843531 C5.77776631,41.542377 6.9875085,43.0888556 8.47290621,44.6008081 C8.75284655,44.8856478 8.89424499,45.0223134 8.78712496,44.9029108 L8.59002411,44.6871231 L8.72856601,44.5288788 C10.1304711,43.0496073 11.5387557,41.5764826 12.9533799,40.1095467 C14.5144758,38.4940161 15.8084857,37.1518166 16.7839921,36.139053 C17.9166079,34.9622907 17.8323401,35.0299042 17.9980191,35.1665697 C18.0680042,35.2241131 17.9294623,35.0658688 17.6923699,34.8141165 C17.2053309,34.296226 16.9496711,33.9754216 16.6725873,33.5352147 C16.441208,33.166937 16.478343,33.1654985 15.7813486,33.5711793 M18.1694111,35.2874109 C18.2179722,35.3650944 18.6664481,35.7290563 18.6664481,35.6902146 C18.6664481,35.6758287 18.5450454,35.5636191 18.3979339,35.4413394 C18.2493941,35.3204983 18.1479871,35.2500077 18.1694111,35.2874109 M27.8459203,35.9793701 C27.8259246,36.0110189 27.9173337,36.2009121 28.0458777,36.4037526 C28.4143301,36.9766751 28.7818713,37.5501916 29.1484999,38.1242998 C29.3413159,38.424964 29.7112371,39.0075908 29.9711817,39.419026 C30.2569309,39.8715692 30.5454463,40.3223343 30.8367115,40.7712956 C31.0963871,41.1718047 31.3525331,41.5746242 31.6051192,41.9797068 C31.8122179,42.3120198 32.3563876,43.1665391 32.8148613,43.8786385 C33.6946738,45.245294 33.9231966,45.6049402 34.5944821,46.6694928 C35.0243904,47.3499434 35.0772363,47.3945395 35.2657676,47.2420495 C35.3728876,47.1557344 35.3728876,47.1542959 35.2514849,47.2132778 C35.0743798,47.2995929 35.0929473,47.3139788 34.7987243,46.8565088 L34.1217257,45.806342 C33.8974878,45.4582045 33.5861255,44.9719629 33.4318727,44.7274035 C33.0268731,44.0865579 32.6193377,43.4473417 32.2092761,42.8097701 C31.952188,42.4040893 31.4522946,41.6258149 30.919551,40.8000673 C30.7172584,40.4850817 30.5172954,40.1685843 30.3196788,39.8506015 C30.079128,39.4649213 29.8353618,39.0812852 29.5884061,38.6997337 C28.6343237,37.2295002 28.0173124,36.2455082 27.9501838,36.0887025 C27.9116206,35.9980717 27.8644878,35.9491598 27.8459203,35.9793701 M20.0490106,36.5447339 L20.2032634,36.6281718 L19.981882,37.1604481 C19.8604793,37.4539194 19.6419544,37.9617398 19.4991277,38.2911757 C19.3548728,38.6220501 19.249181,38.9025741 19.264892,38.9183986 C19.2791746,38.9327844 19.3091682,38.8968198 19.3320205,38.8378378 C19.3534445,38.7774173 19.5748259,38.262404 19.8233444,37.694163 L20.276105,36.6598206 L20.1504175,36.5591197 C20.0818607,36.5015763 19.9961647,36.4569802 19.960458,36.4584188 C19.9247513,36.4584188 19.9647428,36.4986992 20.0490106,36.5447339 M18.40936,40.8144532 L17.3138792,43.3406079 C17.2014585,43.5849008 17.1008852,43.8345496 17.0125148,44.0886719 C17.0167996,44.1821799 17.1724807,43.8412353 17.9237492,42.0947935 C18.3379466,41.1295032 18.8064182,40.046249 18.9620993,39.6880414 C19.1192087,39.3283952 19.2363266,39.0248538 19.2234722,39.0119066 C19.2091895,38.9975207 18.8435532,39.8103211 18.40936,40.8144532 M16.8696881,44.3677573 C16.7468572,44.6655444 16.7625681,44.6986318 16.9025383,44.4339322 C16.965382,44.3130911 17.0053735,44.1994429 16.9882343,44.1836185 C16.9725234,44.1677941 16.9196775,44.2497934 16.8696881,44.3691959 M16.4697734,45.3013988 C15.6270958,47.2118392 15.0643586,48.5554773 15.0900674,48.5813719 C15.1072066,48.5986349 15.1500546,48.5382143 15.184333,48.4461449 C15.2186114,48.3555141 15.3700077,47.9958679 15.5242606,47.6477304 C16.2012592,46.1026905 16.7811356,44.7230878 16.7611398,44.7029476 C16.751142,44.6914389 16.6183131,44.9618928 16.4683451,45.3013988 M37.7152455,45.3316091 L37.5481383,45.5186251 L37.733813,45.3488721 C37.8012911,45.2924264 37.8634469,45.2298216 37.9194877,45.1618561 C37.9194877,45.1186985 37.8723549,45.1575403 37.7152455,45.3316091 M36.8825659,45.9991124 C36.0098947,46.7140889 35.9770446,46.7414221 36.2027107,46.5874935 C36.6726106,46.2638119 37.6324061,45.4653974 37.5124316,45.4941691 C37.5010055,45.4984849 37.2167803,45.7243427 36.8839941,45.9976738 M10.4967606,46.3717058 C10.4967606,46.3860916 10.5910262,46.4695296 10.7067159,46.5587218 C10.8209772,46.6464755 10.8981036,46.689633 10.8766796,46.6536684 C10.8309751,46.5803006 10.4967606,46.3314254 10.4967606,46.3717058 M13.0105106,48.0476569 C13.0105106,48.0634814 13.1133458,48.1296563 13.2390333,48.1943926 C13.3647208,48.2591289 13.467556,48.2994093 13.467556,48.2835848 C13.467556,48.2677604 13.3647208,48.2015855 13.2390333,48.1368492 C13.1133458,48.0721129 13.0105106,48.0318325 13.0105106,48.0476569 M13.7574943,48.4461449 C13.8174815,48.4993725 14.1531242,48.6547397 14.1531242,48.6288452 C14.1531242,48.5957577 13.8360489,48.4245661 13.7746335,48.4245661 C13.7532095,48.4245661 13.7460681,48.4346362 13.7574943,48.4461449 M14.3816469,48.7698265 C14.4916235,48.830247 14.6073131,48.8805975 14.638735,48.8805975 C14.6701569,48.8805975 14.6058849,48.830247 14.4959083,48.7698265 C14.4158572,48.7208177 14.3292951,48.6835209 14.2388202,48.6590554 C14.2073984,48.6590554 14.2716704,48.7094059 14.3816469,48.7698265 M14.9343863,48.8244927 C14.8872535,48.9208778 14.8672577,49 14.8915383,49 C14.9429559,49 15.0814978,48.7079673 15.0472194,48.6720027 C15.0329367,48.6576168 14.9829474,48.7266689 14.9343863,48.8244927" id="Shape" fill="#6CA333"></path>
            <path d="M44.6213594,2.02164845 C44.8044817,2.03319429 45.0899795,2.03175106 45.2557989,2.02164845 C45.4201764,2.00865938 45.270218,2 44.9212762,2 C44.5723345,2 44.4367951,2.01010261 44.6213594,2.02164845 M49.189324,3.76795656 C49.3133281,3.89496078 49.4272388,3.99887333 49.4430998,3.99887333 C49.4589608,3.99887333 49.3710044,3.89496078 49.2470003,3.76795656 C49.1229962,3.64095233 49.0090855,3.53703978 48.9932245,3.53703978 C48.9773635,3.53703978 49.0653199,3.64095233 49.189324,3.76795656 M39.6150547,5.09572801 C39.5660298,5.19098118 39.5386336,5.2689156 39.5544946,5.2689156 C39.5689136,5.2689156 39.6237061,5.19098118 39.672731,5.09572801 C39.7217559,5.00047485 39.7491521,4.92254043 39.7332912,4.92254043 C39.7188721,4.92254043 39.6640796,5.00047485 39.6150547,5.09572801 M39.3641627,5.58931262 C39.2689968,5.80146741 39.2862997,5.84620753 39.391559,5.65425796 C39.4405838,5.56333448 39.469422,5.47818392 39.4564448,5.46663808 C39.4420257,5.45220579 39.4016523,5.50849175 39.3641627,5.58931262 M38.9085198,7.23170818 C38.9085198,7.34283688 38.920055,7.38902024 38.935916,7.33273427 C38.9503351,7.27789154 38.9503351,7.18552483 38.935916,7.13068209 C38.9214969,7.07439613 38.9085198,7.12057949 38.9085198,7.23170818 M22.3409965,7.63581254 C22.0713597,7.65601776 22.4736521,7.66034745 23.2349795,7.64591515 C23.9963069,7.63148285 24.6307465,7.6098344 24.6437237,7.59828856 C24.6812133,7.56653751 22.8889216,7.5954021 22.3409965,7.63581254 M50.9686385,8.06878149 C50.9686385,8.354541 50.9787319,8.47865877 50.9902671,8.34443839 C51.0032443,8.21021802 51.0032443,7.97641478 50.9902671,7.82487565 C50.9787319,7.67333652 50.9686385,7.78302198 50.9686385,8.06878149 M25.1253209,7.67766621 C25.2118354,7.69065527 25.3416071,7.69065527 25.4137025,7.67766621 C25.484356,7.66323391 25.4122606,7.65168807 25.2536507,7.65168807 C25.0950409,7.65168807 25.0373645,7.66323391 25.123879,7.67766621 M38.8566111,8.06878149 C38.8566111,8.32278995 38.8667044,8.41948635 38.8782397,8.28382274 C38.8912169,8.14815913 38.8912169,7.94033404 38.8782397,7.82198919 C38.8667044,7.70364434 38.8566111,7.81477304 38.8566111,8.06878149 M20.7548977,7.78302198 C20.4376779,7.82487565 20.0743171,7.8854913 19.9474292,7.91868559 C19.7167239,7.97930124 19.7167239,7.97930124 20.0051055,7.94610696 C20.9409038,7.83642149 21.8132582,7.70508757 21.5912044,7.70508757 C21.4484555,7.70508757 21.0721175,7.74116832 20.7548977,7.78302198 M26.9262641,7.86672931 C27.02143,7.89126422 27.1771561,7.91002621 27.272322,7.91002621 C27.4165128,7.91002621 27.4078613,7.90281006 27.2146457,7.86384286 C26.9219383,7.8032272 26.6869073,7.80611366 26.9262641,7.86672931 M19.2841515,8.02404137 C18.476683,8.16836435 16.0802319,8.90441157 15.7082196,9.11800959 C15.6217051,9.1670794 15.6116118,9.18584139 15.6793815,9.16130648 C16.8749024,8.71972047 18.0984118,8.35811682 19.3418278,8.0788841 C19.6806762,8.00383615 19.6359771,7.96053925 19.2841515,8.02404137 M29.8965946,8.53061504 C30.0076215,8.57391194 30.1373932,8.60854945 30.1849762,8.60854945 C30.2325592,8.60854945 30.1806505,8.57391194 30.0696236,8.53061504 C29.9772459,8.49232873 29.8803183,8.46613429 29.781242,8.45268063 C29.733659,8.45268063 29.7855677,8.48731815 29.8965946,8.53061504 M15.2179709,9.30995916 C15.0881992,9.37346127 15.0507096,9.40809879 15.1314564,9.3893368 C15.3001596,9.3460399 15.5914251,9.20027369 15.5063525,9.19883046 C15.4059052,9.22415146 15.3090234,9.26197 15.2179709,9.31140239 M14.6123695,9.56974053 C14.5330646,9.61448066 14.4941331,9.65200463 14.525855,9.65200463 C14.557577,9.65200463 14.6484172,9.61448066 14.7277222,9.56974053 C14.8070271,9.52500041 14.8459586,9.48747643 14.8142366,9.48747643 C14.7825147,9.48747643 14.6916745,9.52500041 14.6123695,9.56974053 M32.665058,9.56974053 C32.7272315,9.6083585 32.7954832,9.63617218 32.8669251,9.65200463 C32.8986471,9.65200463 32.8597156,9.61448066 32.7804106,9.56974053 C32.7183271,9.53094622 32.6500442,9.50311986 32.5785435,9.48747643 C32.5468215,9.48747643 32.5857531,9.52500041 32.665058,9.56974053 M14.2158448,9.75014426 C14.1091436,9.79777085 14.0356063,9.84828389 14.0529092,9.86560265 C14.0846312,9.89735371 14.4393405,9.73138227 14.4393405,9.68375569 C14.4393405,9.6505614 14.4552015,9.64623171 14.2158448,9.75014426 M13.6030339,10.0676548 C11.7501821,11.0144136 9.69978886,12.5456805 8.15262155,14.137563 L7.54702018,14.759595 L8.23913603,14.0985958 C9.99249619,12.4273356 11.4776615,11.311719 13.271395,10.32022 C13.8726707,9.98827719 14.0413739,9.88147818 13.9635109,9.8872511 C13.9563014,9.88869433 13.7933658,9.9695152 13.6030339,10.0662116 M33.7609081,10.08786 C33.7609081,10.1022923 33.8906798,10.18167 34.0492897,10.2624909 C34.2078996,10.3433117 34.3376713,10.395268 34.3376713,10.3793925 C34.3376713,10.3649602 34.2078996,10.2855825 34.0492897,10.2047617 C33.8906798,10.1239408 33.7609081,10.0719845 33.7609081,10.08786 M34.3953476,10.432792 C34.3953476,10.4472243 34.4732107,10.502067 34.5683766,10.5511368 C34.6635425,10.6002066 34.7414056,10.627628 34.7414056,10.6117525 C34.7414056,10.5973202 34.6635425,10.5424774 34.5683766,10.4934076 C34.4732107,10.4443378 34.3953476,10.4169164 34.3953476,10.432792 M34.8855964,10.7257676 C34.9490403,10.7777239 35.0528577,10.8455557 35.1163017,10.8758635 L35.2316543,10.9335927 L35.1163017,10.8383396 C35.0445322,10.7808165 34.9672543,10.7305397 34.8855964,10.6882437 L34.7702437,10.6305145 L34.8855964,10.7257676 M37.8847651,12.3696064 L36.3275044,13.9571593 L37.9121613,12.3869252 C38.7830738,11.5224305 39.4838411,10.8080317 39.469422,10.7993724 C39.4550029,10.7892697 38.7412584,11.4964524 37.8847651,12.3696064 M35.3470069,11.0129704 C35.4104509,11.0663699 35.5142683,11.1342017 35.5777122,11.1645095 L35.6930649,11.2222387 L35.5777122,11.1269855 C35.5059428,11.0694624 35.4286649,11.0191857 35.3470069,10.9768896 L35.2316543,10.9191604 L35.3470069,11.0144136 M34.5683766,12.7592785 L33.7320699,13.6107841 L34.5827957,12.7737108 C34.871948,12.4955132 35.1555787,12.2116226 35.4335214,11.9222052 C35.4335214,11.8817947 35.3441231,11.9683885 34.5683766,12.7592785 M49.0148531,12.4994971 L48.6702371,12.8603046 L49.0307141,12.5153726 C49.1560228,12.4003708 49.2762946,12.2799888 49.3911911,12.1545652 C49.3911911,12.1112683 49.3335148,12.1646678 49.0148531,12.4994971 M47.6032252,13.4664611 C47.4287543,13.5588278 47.3061921,13.635319 47.3307045,13.6367622 C47.3927066,13.6410919 47.9492831,13.3567756 47.9492831,13.3206949 C47.9492831,13.2831709 47.9579345,13.2788412 47.6032252,13.4664611 M41.9769,13.7118102 L41.7490786,13.9571593 L41.9841096,13.7392315 C42.1513709,13.5833627 42.2508626,13.5299632 42.3301675,13.5559414 C42.4210077,13.5862492 42.4253334,13.5819195 42.3546799,13.5299632 C42.2306759,13.440483 42.227792,13.4433694 41.9769,13.7118102 M36.0650771,14.2025083 L35.8660938,14.4189928 L36.08238,14.2198271 C36.2842472,14.0350937 36.3246206,13.9860239 36.2813633,13.9860239 C36.27127,13.9860239 36.1746621,14.0827203 36.0650771,14.2025083 M32.117133,15.2127692 L31.3096645,16.0354102 L32.131552,15.2272015 C32.8957633,14.476722 32.979394,14.3901282 32.9390205,14.3901282 C32.9303691,14.3901282 32.5597987,14.759595 32.117133,15.2127692 M34.82792,15.443686 L33.8474226,16.4395146 L34.8423391,15.4581183 C35.7666022,14.5488835 35.86321,14.4478574 35.8228366,14.4478574 C35.8141851,14.4478574 35.3657517,14.8952587 34.82792,15.443686 M7.34226924,15.010717 L7.14328593,15.2272015 L7.35957214,15.0280358 C7.56143926,14.8433024 7.60181268,14.7942326 7.55855544,14.7942326 C7.54846209,14.7942326 7.45185425,14.890929 7.34226924,15.010717 M39.8731562,15.8189258 L39.2689968,16.4395146 L39.8890172,15.8333581 C40.2293075,15.5014152 40.5090377,15.2228718 40.5090377,15.2127692 C40.5090377,15.1723588 40.4355004,15.2416338 39.8745981,15.8189258 M6.82029853,15.6168736 L6.48865969,16.0209779 C6.44251863,16.0758207 6.41800619,16.122004 6.43530909,16.122004 C6.45261199,16.122004 6.61410569,15.9401571 6.79290228,15.7178997 C6.97314078,15.4956423 7.10723823,15.3137953 7.09281915,15.3137953 C7.07840007,15.3137953 6.95583789,15.4509021 6.82029853,15.6168736 M6.07627399,16.5838376 C6.00850431,16.6790907 5.96668898,16.7570252 5.98254997,16.7570252 C5.99696905,16.7570252 6.06618064,16.6790907 6.13395031,16.5838376 C6.20171999,16.4885844 6.24353532,16.41065 6.22767433,16.41065 C6.21325525,16.41065 6.14404367,16.4885844 6.07627399,16.5838376 M32.8092488,17.4642078 L31.8287514,18.4600364 L32.8236679,17.4786401 C33.7479309,16.5694053 33.8445388,16.4683792 33.8041653,16.4683792 C33.7955139,16.4683792 33.3470805,16.9157804 32.8092488,17.4642078 M30.2138144,17.1178326 L29.7524038,17.5940985 L30.2282334,17.1322649 C30.6694573,16.7065121 30.7300174,16.6415668 30.689644,16.6415668 C30.5258483,16.7950452 30.3671522,16.9538867 30.2138144,17.1178326 M5.73021607,17.0745357 C5.63216632,17.2174155 5.56439664,17.3343171 5.58025763,17.3343171 C5.59611862,17.3343171 5.68984264,17.2174155 5.78789239,17.0745357 C5.88594213,16.931656 5.95371181,16.8147543 5.93785082,16.8147543 C5.92198983,16.8147543 5.82826581,16.931656 5.73021607,17.0745357 M40.0764653,18.5033333 L38.6345572,19.9609954 L40.0880005,18.520652 L41.5414438,17.0803086 L41.6683317,17.1928806 L41.7937777,17.3054525 L41.7144728,17.1755618 C41.5890268,16.9720664 41.5962363,16.9662935 40.0764653,18.5033333 M41.8283835,17.4209109 C41.8586636,17.484413 41.9264333,17.5883255 41.978342,17.6518277 L42.072066,17.767286 L42.0158316,17.6518277 C41.9841096,17.5883255 41.9177818,17.484413 41.8658731,17.4209109 L41.7721491,17.3054525 L41.8283835,17.4209109 M5.46346308,17.4642078 C5.26592168,17.8019236 5.25294451,17.8293449 5.35387807,17.7095568 C5.47067262,17.5695636 5.57160618,17.3920463 5.53411657,17.3920463 C5.51969749,17.3920463 5.48653361,17.4237973 5.46346308,17.4642078 M29.3486695,17.9837705 L29.0040535,18.344578 L29.3645305,17.999646 C29.4898392,17.8846442 29.610111,17.7642622 29.7250075,17.6388386 C29.7250075,17.5955417 29.6673312,17.6489412 29.3486695,17.9837705 M37.6540598,18.0414997 L37.3094438,18.4023072 L37.6699208,18.0573752 C37.7952295,17.9423734 37.9155013,17.8219914 38.0303978,17.6965678 C38.0303978,17.6532709 37.9727215,17.7066704 37.6540598,18.0414997 M42.1383937,17.911609 L42.3806343,18.3301457 C42.4311176,18.4292133 42.4941168,18.5213733 42.5680823,18.6043594 C42.6055719,18.6043594 42.2883522,18.0487159 42.1614643,17.8971767 L42.0533212,17.767286 L42.1383937,17.911609 M31.5403697,18.73425 L31.3111064,18.9795991 L31.5562307,18.7515688 C31.7840522,18.539414 31.8273094,18.488901 31.7840522,18.488901 C31.7754008,18.488901 31.6643738,18.6000297 31.5389278,18.73425 M27.3054859,20.0158381 C26.5297394,20.7922958 25.8419492,21.4388628 25.7770634,21.4518518 C25.6617107,21.4749435 25.6617107,21.4749435 25.7741795,21.4836029 C25.8549264,21.4879326 26.3394075,21.0405313 27.3314402,20.0475892 C28.1244896,19.2538128 28.7589292,18.6043594 28.7445101,18.6043594 C28.7272072,18.6043594 28.0812324,19.2393805 27.3054859,20.0158381 M42.7310179,18.9507345 C42.8117648,19.1094898 42.8896278,19.2393805 42.9054888,19.2393805 C42.9213498,19.2393805 42.8694411,19.1094898 42.7886943,18.9507345 C42.7079474,18.7919792 42.6300844,18.6620885 42.6142234,18.6620885 C42.5983624,18.6620885 42.6502711,18.7919792 42.7310179,18.9507345 M4.54929339,19.0084637 C4.50026852,19.1037169 4.47287227,19.1816513 4.48873325,19.1816513 C4.50315233,19.1816513 4.55794484,19.1037169 4.60696971,19.0084637 C4.65599459,18.9132105 4.68339084,18.8352761 4.66752985,18.8352761 C4.65311077,18.8352761 4.59831826,18.9132105 4.54929339,19.0084637 M29.9557128,20.3218029 L29.3501115,20.9423917 L29.9701319,20.3362352 C30.5468951,19.7748188 30.6161067,19.701214 30.5757333,19.701214 C30.5656399,19.701214 30.2873517,19.9812006 29.9557128,20.3218029 M3.95522728,20.1947986 C3.88360375,20.3287348 3.82284812,20.4682148 3.77354687,20.6118921 C3.77498878,20.6349837 3.86727089,20.4762285 3.97973972,20.2583008 C4.09076664,20.0418163 4.1729554,19.8541964 4.16142013,19.8412073 C4.14844296,19.8296615 4.05616085,19.9884168 3.95522728,20.1947986 M35.4032414,20.2929383 L35.0600672,20.6537457 L35.4205442,20.3088138 C35.545853,20.193812 35.6661247,20.0734299 35.7810213,19.9480063 C35.7810213,19.9047094 35.7233449,19.9581089 35.4046833,20.2929383 M37.7117361,20.8557979 C37.2359065,21.3320638 36.8610104,21.7217358 36.8768714,21.7217358 C36.8927323,21.7217358 37.2950247,21.3320638 37.7694124,20.8557979 C38.2452421,20.3795321 38.6201382,19.98986 38.6042772,19.98986 C38.5884162,19.98986 38.1861238,20.3795321 37.7117361,20.8557979 M22.3438804,21.2656752 C21.9747519,21.3378367 21.9199594,21.3782471 22.2458306,21.3378367 C22.3986729,21.3190747 22.7231022,21.2844372 22.9667846,21.2613455 L23.4080085,21.2180486 L23.0042742,21.2166054 C22.7831931,21.2154622 22.5623695,21.2318703 22.3438804,21.2656752 M24.0568671,21.2440267 C24.1592426,21.2570158 24.3279458,21.2570158 24.4317632,21.2440267 C24.5355806,21.2310377 24.450508,21.2209351 24.2443151,21.2209351 C24.0381223,21.2209351 23.9544916,21.2310377 24.0568671,21.2440267 M21.2220759,21.5341159 C21.0663498,21.5860722 20.9625325,21.6365853 20.9928125,21.6466879 C21.0216507,21.6567905 21.188912,21.6149368 21.361941,21.5528779 C21.7440466,21.4172143 21.6214844,21.4013388 21.2220759,21.5341159 M20.4146074,21.8444104 C19.4196909,22.2889251 18.5213822,22.9152869 17.9013617,23.5979346 L17.5870258,23.9443098 L17.9878762,23.5589674 C18.6362466,22.9419906 19.3748214,22.4275803 20.1781345,22.0334735 C20.9625325,21.6481311 21.0980718,21.5398889 20.4146074,21.8458536 M35.4623596,23.1216688 L34.1358042,24.4638725 L35.4767787,23.1361011 C36.7225872,21.9035828 36.8437075,21.779465 36.803334,21.779465 C36.7946826,21.779465 36.1905231,22.3841783 35.4623596,23.1216688 M27.7048944,22.5732414 L27.099293,23.1938303 L27.7193135,22.5876737 C28.0610457,22.2557309 28.3393339,21.9771875 28.3393339,21.9670849 C28.3393339,21.9266745 28.2657966,21.9959495 27.7048944,22.5732414 M33.0370703,22.6598352 L32.8092488,22.9051843 L33.0543732,22.677154 C33.2821946,22.4649992 33.3254519,22.4144861 33.2821946,22.4144861 C33.2735432,22.4144861 33.1625163,22.5241716 33.0370703,22.6598352 M2.8795639,23.0249724 C2.85793528,23.1101229 2.85072574,23.1895006 2.86514482,23.2039329 C2.8795639,23.2169219 2.90840206,23.1591927 2.92858877,23.0740422 C2.95021739,22.9888916 2.95742693,22.909514 2.94300785,22.8950817 C2.92858877,22.8820926 2.89975061,22.9398218 2.8795639,23.0249724 M32.5179834,23.179398 L32.2901619,23.424747 L32.5352863,23.1967167 C32.7631078,22.9845619 32.806365,22.9340489 32.7631078,22.9340489 C32.7544563,22.9340489 32.6434294,23.0437344 32.5179834,23.179398 M44.439679,22.9917781 C44.439679,23.0394047 44.4613076,23.1303281 44.4887038,23.1938303 C44.5204258,23.2659917 44.5377287,23.2775376 44.5377287,23.2226949 C44.5377287,23.1750683 44.5161001,23.0841448 44.4887038,23.0206427 C44.4569819,22.9484812 44.439679,22.9369353 44.439679,22.9917781 M23.3950313,23.2659917 C23.5795955,23.2775376 23.8650933,23.2775376 24.0294708,23.2659917 C24.1952903,23.2530027 24.0453318,23.2443433 23.6963901,23.2443433 C23.3474483,23.2443433 23.211909,23.2544459 23.3950313,23.2659917 M44.5550316,23.3958824 C44.5550316,23.443509 44.5766602,23.5344325 44.6040565,23.5979346 C44.6357784,23.6700961 44.6530813,23.6816419 44.6530813,23.6267992 C44.6530813,23.5791726 44.6314527,23.4882491 44.6040565,23.424747 C44.5723345,23.3525855 44.5550316,23.3410397 44.5550316,23.3958824 M25.3978416,23.5012382 C25.4454245,23.5301028 25.5492419,23.5733997 25.6285468,23.5936049 C25.7294804,23.6210263 25.7467833,23.6166966 25.6862232,23.5791726 C25.6386402,23.550308 25.5348228,23.5070111 25.4555179,23.4868059 C25.3545843,23.4593845 25.3372814,23.4637142 25.3978416,23.5012382 M2.61569473,23.9731744 C2.57964703,24.1059515 2.56234413,24.2271828 2.5753213,24.2416151 C2.58974038,24.2546042 2.6286719,24.1550213 2.66183578,24.020801 C2.69644158,23.8851374 2.71518638,23.7653493 2.70365112,23.7523602 C2.69067394,23.7408144 2.65174243,23.838954 2.61569473,23.9731744 M32.9822778,25.5895918 C32.5064481,26.0658576 32.131552,26.4555297 32.147413,26.4555297 C32.163274,26.4555297 32.5655664,26.0658576 33.0399541,25.5895918 C33.5157837,25.1133259 33.8906798,24.7236539 33.8748188,24.7236539 C33.8589579,24.7236539 33.4566655,25.1133259 32.9822778,25.5895918 M19.3677822,25.0267322 L19.1399607,25.2720812 L19.3850851,25.0440509 C19.6129065,24.8318961 19.6561638,24.7813831 19.6129065,24.7813831 C19.6042551,24.7813831 19.4932282,24.8925118 19.3677822,25.0267322 M45.0178841,25.3875396 C45.0164422,25.4510417 45.0366289,25.6069106 45.0611413,25.7339148 C45.1015147,25.9273076 45.1101662,25.935967 45.1101662,25.791644 C45.1101662,25.5895918 45.0236517,25.2100223 45.0178841,25.3875396 M16.3671716,25.7685523 C16.2547028,25.9936962 16.1710721,26.187089 16.1826074,26.200078 C16.1941426,26.2116239 16.2994019,26.0268904 16.4176384,25.7902007 C16.532991,25.5520678 16.6180636,25.358675 16.6022026,25.358675 C16.5877835,25.358675 16.4825242,25.5434084 16.3686135,25.7685523 M15.9749726,26.7225272 C15.9338074,26.8307819 15.903851,26.9429795 15.8855743,27.0573565 C15.8884581,27.0919941 15.9403668,26.9779789 16.0009269,26.8062346 C16.0614871,26.6344902 16.1018605,26.4843943 16.0888833,26.4714052 C16.0773481,26.4598594 16.0254394,26.5724313 15.9735307,26.7225272 M2.11102692,26.8307695 C2.11102692,26.9577737 2.12400409,27.003957 2.13698126,26.9317956 C2.15140034,26.8596341 2.15140034,26.7557215 2.13698126,26.7008788 C2.12256218,26.6445928 2.11102692,26.7037652 2.11102692,26.8307695 M45.2529151,27.1194154 C45.2529151,27.2464197 45.2658923,27.292603 45.2788694,27.2204415 C45.2932885,27.14828 45.2932885,27.0443675 45.2788694,26.9895247 C45.2644503,26.9332388 45.2529151,26.9924112 45.2529151,27.1194154 M2.05479251,27.3503322 C2.05479251,27.5090875 2.06776968,27.5668167 2.08074685,27.4802229 C2.09372402,27.3921859 2.09372402,27.2622952 2.08074685,27.1915769 C2.06632777,27.1194154 2.05479251,27.1915769 2.05479251,27.3503322 M15.7399416,27.5841354 C15.718313,27.6995938 15.7111034,27.8063928 15.7255225,27.8208251 C15.7399416,27.8352574 15.7687797,27.7515501 15.7918503,27.6360917 C15.8134789,27.5206333 15.8206884,27.4138343 15.8062694,27.399402 C15.7918503,27.3849697 15.7630121,27.4686771 15.7399416,27.5841354 M45.3134752,27.725572 C45.3134752,27.9319538 45.3250105,28.0171044 45.3379877,27.9131918 C45.3509648,27.8092793 45.3509648,27.6404214 45.3379877,27.5379521 C45.3250105,27.4340395 45.3149171,27.5191901 45.3149171,27.725572 M2,28.2162701 C2,28.4385275 2.01153526,28.5222348 2.02307053,28.40389 C2.0360477,28.2826587 2.0360477,28.1008117 2.02307053,27.9997856 C2.01009336,27.8958731 2,27.9940127 2,28.2162701 M31.6989796,28.2162701 C31.6989796,28.3432743 31.7119568,28.3894577 31.724934,28.3172962 C31.7393531,28.2451347 31.7393531,28.1412222 31.724934,28.0863794 C31.7105149,28.0300935 31.6989796,28.0892659 31.6989796,28.2162701 M15.608728,28.5626453 C15.608728,28.7214006 15.6217051,28.7791298 15.6346823,28.692536 C15.6476595,28.6044989 15.6476595,28.4746083 15.6346823,28.40389 C15.6202632,28.3317285 15.608728,28.40389 15.608728,28.5626453 M45.33222,29.5584739 C45.3105914,30.2483377 45.2817532,30.9959308 45.2687761,31.2181882 C45.2471474,31.5948712 45.2485894,31.6020873 45.2961723,31.3336466 C45.3538486,31.0074766 45.4461308,28.3028639 45.3999897,28.3028639 C45.3841287,28.3028639 45.3524067,28.8671668 45.33222,29.5584739 M31.7580979,28.7358329 C31.7580979,28.8945881 31.7696331,28.9523173 31.7840522,28.8657235 C31.7970294,28.7776865 31.7970294,28.6477958 31.7840522,28.5770776 C31.7696331,28.5049161 31.7580979,28.5770776 31.7580979,28.7358329 M17.6331668,29.3131248 C17.6331668,29.6623864 17.6432602,29.79805 17.6547954,29.6147598 C17.6663307,29.4300264 17.6648888,29.1442669 17.6547954,28.9797387 C17.6418183,28.8137673 17.6331668,28.9638632 17.6331668,29.3131248 M29.7451943,29.3131248 C29.7451943,29.5988843 29.7538457,29.7230021 29.765381,29.5887817 C29.7783581,29.4545613 29.7783581,29.2207581 29.765381,29.0692189 C29.7538457,28.9176798 29.7437523,29.0273653 29.7437523,29.3131248 M15.5424002,29.5729062 C15.5034687,31.6338384 16.7391839,34.1753661 18.4204486,35.4915918 C18.4997536,35.5550939 18.3872847,35.4381923 18.1695566,35.2346968 C16.7089038,33.8679582 15.8408751,32.0639209 15.6260309,29.9481459 C15.5640288,29.3376597 15.5496097,29.2669414 15.5424002,29.5729062 M2.02018671,30.3522503 C2.03460579,30.9237693 2.08218876,31.6121899 2.125446,31.8820739 C2.19321568,32.2933944 2.20186712,32.3164861 2.18168041,32.0263969 C2.14707462,31.5501311 2.04181533,30.017421 2.01586099,29.6306354 C2.00432572,29.4560045 2.00720954,29.7807313 2.02018671,30.3522503 M31.7234921,30.1458684 L31.6571643,30.7375926 C31.629768,30.95985 31.6326519,30.9685094 31.6831186,30.8140838 C31.7480045,30.6178046 31.8316352,29.8038229 31.786936,29.8038229 C31.7725169,29.8038229 31.7436788,29.9582485 31.7234921,30.1473116 M31.4351105,31.6323952 C31.3832018,31.8127989 31.3514798,31.9715542 31.3630151,31.9845432 C31.3759922,31.9960891 31.4279009,31.8589822 31.4812515,31.6785785 C31.5331602,31.4981748 31.5648822,31.3394195 31.5533469,31.3264304 C31.5389278,31.3119981 31.4855772,31.4505482 31.4351105,31.6323952 M45.1000728,32.4911169 C45.0423965,32.8894483 45.0077907,33.2286074 45.0222098,33.2430397 C45.051048,33.2719043 45.1548653,32.6599748 45.2168674,32.0985584 C45.2846371,31.4909586 45.2053321,31.7565129 45.1000728,32.4911169 M31.1957537,32.3280319 C30.9578389,32.9760421 30.345028,33.9848598 29.8418021,34.5621517 C29.4294164,35.0355311 29.3803915,35.1221249 29.7408685,34.7439987 C30.392611,34.0584645 31.474042,32.2298923 31.3183159,32.0740235 C31.3067806,32.0624776 31.2519881,32.1764928 31.1957537,32.3280319 M2.21772811,32.4882304 C2.21051857,32.6354399 2.38354754,33.6327117 2.42392096,33.6716789 C2.43978195,33.6861112 2.43545622,33.5576638 2.4138276,33.383033 C2.36336082,32.9659395 2.22637956,32.341021 2.21772811,32.4882304 M27.9355997,33.5850851 C27.6991268,33.8232181 27.5188883,34.0180541 27.5347492,34.0180541 C27.5506102,34.0180541 27.7568031,33.8232181 27.993276,33.5850851 C28.2297489,33.3469522 28.4099874,33.1521162 28.3941264,33.1521162 C28.3782654,33.1521162 28.1720726,33.3469522 27.9355997,33.5850851 M44.8419713,33.9314603 C44.6064129,34.9772319 44.3029683,36.0065146 43.9335692,37.012756 C43.7879365,37.4038713 43.7619822,37.5178865 43.8600319,37.3504718 C44.1051563,36.9290487 44.987604,33.9155848 44.9342534,33.6803383 C44.9227181,33.628382 44.8809028,33.740954 44.8419713,33.9314603 M2.50755163,34.0065082 C2.49745827,34.1219666 2.68779013,34.9200727 2.70941875,34.8551274 C2.72095401,34.8233763 2.68058059,34.6025622 2.62146236,34.3644292 C2.56234413,34.1262963 2.51043544,33.9646546 2.50610972,34.0065082 M20.0339437,34.1551609 C20.0339437,34.1695932 20.1118067,34.2388683 20.2069727,34.3067001 C20.3021386,34.3745319 20.3800016,34.4163855 20.3800016,34.40051 C20.3800016,34.3860777 20.3021386,34.3168027 20.2069727,34.2489709 C20.1118067,34.1811391 20.0339437,34.1392854 20.0339437,34.1551609 M26.4215963,34.6862695 C26.20531,34.8031711 26.2197291,34.8522409 26.4360153,34.739669 C26.5311813,34.6905992 26.6090443,34.6386429 26.6090443,34.6227674 C26.6090443,34.5852434 26.6032767,34.5881299 26.4215963,34.6862695 M21.3028228,34.9128566 C21.3649962,34.9514746 21.433248,34.9792882 21.5046899,34.9951207 C21.5364119,34.9951207 21.4974803,34.9575967 21.4181754,34.9128566 C21.3560918,34.8740623 21.2878089,34.8462359 21.2163083,34.8305925 C21.1845863,34.8305925 21.2235178,34.8681165 21.3028228,34.9128566 M2.76421125,35.0860442 C2.82188758,35.4035547 2.91993732,35.7210653 2.94156594,35.6604496 C2.95454311,35.6272554 2.91272778,35.4439652 2.84784192,35.2563453 C2.78439797,35.0672822 2.74690836,34.990791 2.76421125,35.0860442 M29.028566,35.3891224 L28.8295827,35.6056069 L29.0458689,35.4064412 C29.247736,35.2217078 29.2881094,35.172638 29.2448522,35.172638 C29.2347588,35.172638 29.138151,35.2707776 29.028566,35.3891224 M23.4512657,35.3891224 C23.5709441,35.4006683 23.7656017,35.4006683 23.8838381,35.3891224 C24.0035165,35.3746901 23.9054667,35.3645875 23.6675519,35.3645875 C23.4296371,35.3645875 23.3330293,35.3761334 23.4512657,35.3876792 M28.3104958,35.9563118 L28.1374668,36.1064077 L28.3249148,35.9822899 C28.4287322,35.9130149 28.5123629,35.8466263 28.5123629,35.832194 C28.5123629,35.7888971 28.4878505,35.8033294 28.3104958,35.957755 M3.0237547,35.9620847 C3.0064518,36.2160931 3.975414,38.5238177 4.54352576,39.5817051 C5.12028897,40.6525817 5.04098403,40.4130055 4.38635778,39.0982231 C4.04660514,38.4194018 3.73677752,37.7259845 3.45776902,37.0199722 C3.11892063,36.0876457 3.03096424,35.8726044 3.02519661,35.9620847 M27.8548528,36.2492874 C26.0063267,37.5048974 22.757708,37.7343709 20.5328439,36.7645205 C20.4117236,36.711121 20.3280929,36.692359 20.3468377,36.72411 C20.5631239,37.0748149 22.913434,37.5352052 24.1001243,37.4601573 C25.5103104,37.3692338 27.3213469,36.7933851 27.993276,36.2233093 C28.1937012,36.0530082 28.1230477,36.0659972 27.8534109,36.2492874 M43.6307686,37.7791111 C43.5629989,37.942196 43.5154159,38.086519 43.5283931,38.0980649 C43.5399283,38.1096107 43.6048142,37.9854929 43.6725839,37.8209647 C43.7417955,37.6564365 43.7879365,37.5121135 43.7764013,37.5005677 C43.764866,37.4890219 43.6999801,37.6131396 43.6322105,37.7776678 M43.4274595,38.2250691 C43.3539222,38.3434139 43.2832687,38.5815469 43.3294098,38.5526823 C43.3582479,38.5353635 43.4087147,38.4429968 43.4418786,38.3477436 C43.4995549,38.1817722 43.4923454,38.1182701 43.4274595,38.2236258 M42.9905614,39.1472929 C41.9769,41.112972 40.8060707,42.7409353 39.1493184,44.4814705 C38.8537273,44.7917649 38.6345572,45.0443301 38.6605116,45.0443301 C38.700885,45.0443301 39.6208223,44.0730364 40.1990274,43.4192533 C40.5566206,43.0151489 41.365531,41.9428292 41.7591719,41.3496617 C42.3590057,40.4490863 43.326526,38.7229834 43.2659658,38.663811 C43.2558725,38.6537083 43.1318684,38.8701928 42.9905614,39.1458497 M5.24573497,40.7868021 C5.55862901,41.3294565 6.83615952,43.0815375 6.91834828,43.0815375 C6.93276736,43.0815375 6.7424355,42.81454 6.49442732,42.4898133 C6.20289148,42.1028348 5.92162128,41.7082143 5.65091112,41.3063648 C5.52255266,41.1011967 5.38245396,40.9036258 5.23131589,40.7146406 C5.21689681,40.7146406 5.22266444,40.7463916 5.24573497,40.7868021 M7.23845186,43.5000742 C7.40859701,43.6977966 7.87144949,44.1856083 8.26797419,44.585383 C8.6644989,44.9837144 8.89520418,45.2059718 8.77985154,45.0760811 C8.6644989,44.9476337 8.32132479,44.5824965 8.01564029,44.264986 C7.70851388,43.9474754 7.36245595,43.5650195 7.24277759,43.4163668 C7.12454113,43.2662709 7.00630467,43.1421435 6.97890842,43.1421435 C6.95151216,43.1407099 7.06830671,43.3009084 7.23845186,43.5000742 M38.2567773,45.376273 L38.057794,45.5927574 L38.2740802,45.3935917 C38.4759474,45.2088583 38.5163208,45.1597885 38.4730635,45.1597885 C38.4629702,45.1597885 38.3663623,45.2579281 38.2567773,45.376273 M9.27730981,45.5638928 C9.4013139,45.6908971 9.51522464,45.7948096 9.53108562,45.7948096 C9.54694661,45.7948096 9.45899022,45.6908971 9.33498613,45.5638928 C9.21098204,45.4368886 9.09707131,45.3329761 9.08121032,45.3329761 C9.06534933,45.3329761 9.15330572,45.4368886 9.27730981,45.5638928 M37.7809477,45.8092419 C37.6007092,45.9867592 37.6007092,45.9896456 37.7665286,45.8525388 L37.9972339,45.6649189 C38.0260721,45.6418272 38.0332816,45.621622 38.011653,45.621622 C37.9885824,45.621622 37.8847651,45.7053294 37.7809477,45.8092419 M37.1897654,46.2739619 L36.6995167,46.6780663 C36.5149524,46.8296054 36.5207201,46.8281622 36.7600768,46.663634 C37.0253879,46.4846735 37.5617777,46.0300561 37.509869,46.0314959 C37.494008,46.0314959 37.3498172,46.1411848 37.1897654,46.2739619 M10.5375374,46.5900293 C10.5836785,46.663634 10.921085,46.9133127 10.921085,46.8729023 C10.921085,46.85847 10.825919,46.7747627 10.7091245,46.6852824 C10.5937718,46.5972454 10.5159088,46.5539485 10.5375374,46.5900293 M36.2698281,46.984031 L36.0967991,47.1326837 L36.2842472,47.0085659 C36.3866226,46.9392909 36.4716952,46.8729023 36.4716952,46.85847 C36.4716952,46.8151731 36.4471828,46.8296054 36.2698281,46.984031 M10.9787613,46.914756 C10.9787613,46.9306315 11.0955558,47.0244414 11.2383047,47.1225811 C11.3810536,47.2207207 11.4978482,47.2885525 11.4978482,47.272677 C11.4978482,47.2568014 11.3810536,47.1629915 11.2383047,47.0648519 C11.0955558,46.9667122 10.9787613,46.8988804 10.9787613,46.914756 M35.7118097,47.3433952 C35.5315712,47.4588536 35.2503991,47.6334844 35.0874635,47.7287376 C34.6866131,47.9625408 34.4645592,48.1530472 34.82792,47.9524382 C35.2287705,47.7301808 36.067961,47.1889696 36.067961,47.1528889 C36.067961,47.1110352 36.0794962,47.1052623 35.7118097,47.3433952 M34.3636257,48.1559336 C34.2972979,48.2194357 32.9433463,48.9020835 32.4631909,49.1142383 C31.6744672,49.4620566 30.7228079,49.8069886 29.3775077,50.2312981 L29.1756406,50.2948003 L29.3847172,50.2659357 C30.2267915,50.1504773 34.0810117,48.5571515 34.4760945,48.1617066 C34.5496318,48.0881018 34.4414887,48.0823289 34.3636257,48.1559336 M13.6895484,48.5946755 C13.6895484,48.6336427 14.0428158,48.8082735 14.0687702,48.7822954 C14.0817474,48.7693063 14.0010005,48.7159068 13.8914155,48.6639505 C13.7803886,48.610551 13.6895484,48.5802432 13.6895484,48.5946755 M14.7277222,49.1099086 C14.7277222,49.1820701 17.2481774,50.1042939 17.301528,50.0508944 C17.3159471,50.0364621 17.1140799,49.9527548 16.8502108,49.8676042 C16.455128,49.7406 15.5265392,49.3913384 14.9122864,49.1402164 C14.7652118,49.0796007 14.7277222,49.0738278 14.7277222,49.1113518 M17.6692145,50.1764554 C17.8436854,50.2341846 18.0772745,50.29913 18.1883014,50.3178919 C18.319515,50.3395404 18.2805835,50.3150055 18.0729488,50.2457304 C17.8984779,50.1880013 17.6648888,50.1230559 17.5538619,50.1042939 C17.4226483,50.0826455 17.4615798,50.1071804 17.6692145,50.1764554 M18.4276582,50.3828373 C18.4680316,50.4246909 19.2985706,50.5921056 19.3259669,50.5646842 C19.3403859,50.5502519 19.167357,50.4982957 18.9453031,50.4477826 C18.5314755,50.3539727 18.3786333,50.3337675 18.4262162,50.3828373 M28.401336,50.4477826 C28.0264399,50.5300467 27.883691,50.5906624 28.0841162,50.582003 C28.2484937,50.5747869 29.0213564,50.368405 28.887259,50.368405 C28.823815,50.368405 28.604645,50.4030425 28.401336,50.4477826 M27.1987847,50.6758129 C26.9363574,50.7176666 26.6897911,50.7652932 26.6508596,50.7826119 C26.5297394,50.8403411 27.2752058,50.7537474 27.5996351,50.6743697 C27.9889503,50.5791165 27.8159213,50.5805598 27.1987847,50.6758129 M20.09162,50.7306557 C20.5140991,50.8215792 20.985603,50.8461141 20.6107069,50.758077 C20.49968,50.7320989 20.2531137,50.6960182 20.0627819,50.6801426 L19.7167239,50.651278 L20.09162,50.7306557 M20.9711839,50.8576599 C21.0259764,50.8720922 21.1168166,50.8720922 21.173051,50.8576599 C21.2278435,50.8432276 21.1831444,50.8302385 21.0721175,50.8302385 C20.9610906,50.8302385 20.9149495,50.8417844 20.9711839,50.8576599 M26.2197291,50.8576599 C26.2745216,50.8720922 26.3653618,50.8720922 26.4215963,50.8576599 C26.4778307,50.8432276 26.4316896,50.8302385 26.3206627,50.8302385 C26.2096358,50.8302385 26.1634947,50.8417844 26.2197291,50.8576599 M21.6258102,50.9529131 C21.989171,51.0164152 25.3271881,51.014972 25.7438995,50.9529131 C25.9414409,50.921162 25.171462,50.9038433 23.7021577,50.9038433 C22.2285277,50.9038433 21.4484555,50.9226052 21.6258102,50.9529131" id="Shape" fill="#BAE16C"></path>
        </g>
    </g>
</svg>